<?xml version="1.0" encoding="UTF-8" standalone="no"?>
<!-- Created with Vectornator (http://vectornator.io/) -->

<svg
   height="224.97128"
   stroke-miterlimit="10"
   style="clip-rule:evenodd;fill-rule:nonzero;stroke-linecap:round;stroke-linejoin:round"
   version="1.1"
   viewBox="0 0 898.98669 224.97128"
   width="898.98669"
   xml:space="preserve"
   id="svg721"
   sodipodi:docname="logo.svg"
   inkscape:version="1.2.2 (b0a8486541, 2022-12-01)"
   inkscape:export-filename="logo.png"
   inkscape:export-xdpi="128.14427"
   inkscape:export-ydpi="128.14427"
   xmlns:inkscape="http://www.inkscape.org/namespaces/inkscape"
   xmlns:sodipodi="http://sodipodi.sourceforge.net/DTD/sodipodi-0.dtd"
   xmlns="http://www.w3.org/2000/svg"
   xmlns:svg="http://www.w3.org/2000/svg"
   xmlns:vectornator="http://vectornator.io"><sodipodi:namedview
   id="namedview723"
   pagecolor="#ffffff"
   bordercolor="#666666"
   borderopacity="1.0"
   inkscape:showpageshadow="2"
   inkscape:pageopacity="0.0"
   inkscape:pagecheckerboard="0"
   inkscape:deskcolor="#d1d1d1"
   showgrid="false"
   inkscape:zoom="0.80078125"
   inkscape:cx="428.33171"
   inkscape:cy="29.970732"
   inkscape:window-width="2560"
   inkscape:window-height="1373"
   inkscape:window-x="0"
   inkscape:window-y="0"
   inkscape:window-maximized="1"
   inkscape:current-layer="Layer-1" />
<defs
   id="defs716" />
<g
   id="Layer-1"
   vectornator:layerName="Layer 1"
   transform="matrix(0.33333333,0,0,0.33333333,582.02503,-410.62971)">

<g
   aria-label="ClimaLand"
   id="text1853"
   style="font-size:560px;line-height:1.25;font-family:'Latin Modern Roman';-inkscape-font-specification:'Latin Modern Roman, ';stroke-width:3"><path
     d="m -1554.5551,1540.003 q -64.4,0 -101.36,43.12 -36.96,43.12 -36.96,118.16 0,74.48 34.16,118.16 34.72,43.12 103.6,43.12 26.32,0 49.84,-4.48 23.52,-4.48 45.92,-11.2 v 43.68 q -22.4,8.4 -46.48,12.32 -23.52,3.92 -56.56,3.92 -61.04,0 -101.92,-25.2 -40.88,-25.2 -61.6,-71.68 -20.16,-46.48 -20.16,-109.2 0,-60.48 21.84,-106.4 22.4,-46.48 65.52,-72.24 43.12,-26.32 104.72,-26.32 63.28,0 110.32,23.52 l -20.16,42.56 q -18.48,-8.4 -41.44,-15.12 -22.4,-6.72 -49.28,-6.72 z"
     style="font-family:'Droid Sans';-inkscape-font-specification:'Droid Sans'"
     id="path396" /><path
     d="m -1329.4351,1901.203 h -49.28 v -425.6 h 49.28 z"
     style="font-family:'Droid Sans';-inkscape-font-specification:'Droid Sans'"
     id="path398" /><path
     d="m -1209.0354,1488.483 q 11.2,0 19.6,7.84 8.96,7.28 8.96,23.52 0,15.68 -8.96,23.52 -8.4,7.84 -19.6,7.84 -12.32,0 -20.72,-7.84 -8.4,-7.84 -8.4,-23.52 0,-16.24 8.4,-23.52 8.4,-7.84 20.72,-7.84 z m 24.08,112.56 v 300.16 h -49.28 v -300.16 z"
     style="font-family:'Droid Sans';-inkscape-font-specification:'Droid Sans'"
     id="path400" /><path
     d="m -760.47577,1595.443 q 50.96,0 76.16,26.32 25.2,25.76 25.2,84 v 195.44 h -48.72 v -193.2 q 0,-71.12 -61.04,-71.12 -43.68,0 -62.72,25.2 -18.48,25.2 -18.48,73.36 v 165.76 h -48.72 v -193.2 q 0,-71.12 -61.6,-71.12 -45.36003,0 -62.72003,28 -17.36,28 -17.36,80.64 v 155.68 h -49.28 v -300.16 h 39.76 l 7.28,40.88 h 2.8 q 14,-23.52 37.52,-34.72 24.08003,-11.76 50.96003,-11.76 70.56,0 91.84,50.4 h 2.8 q 15.12,-25.76 40.88,-38.08 26.32,-12.32 55.44,-12.32 z"
     style="font-family:'Droid Sans';-inkscape-font-specification:'Droid Sans'"
     id="path402" /><path
     d="m -452.4761,1596.003 q 54.88,0 81.2,24.08 26.32,24.08 26.32,76.72 v 204.4 h -35.84 l -9.52,-42.56 h -2.24 q -19.6,24.64 -41.44,36.4 -21.28,11.76 -59.36,11.76 -40.88,0 -67.76,-21.28 -26.88,-21.84 -26.88,-67.76 0,-44.8 35.28,-68.88 35.28,-24.64 108.64,-26.88 l 50.96,-1.68 v -17.92 q 0,-37.52 -16.24,-52.08 -16.24,-14.56 -45.92,-14.56 -23.52,0 -44.8,7.28 -21.28,6.72 -39.76,15.68 l -15.12,-36.96 q 19.6,-10.64 46.48,-17.92 26.88,-7.84 56,-7.84 z m 14.56,160.16 q -56,2.24 -77.84,17.92 -21.28,15.68 -21.28,44.24 0,25.2 15.12,36.96 15.68,11.76 39.76,11.76 38.08,0 63.28,-20.72 25.2,-21.28 25.2,-64.96 v -26.88 z"
     style="font-family:'Droid Sans';-inkscape-font-specification:'Droid Sans'"
     id="path404" /><path
     d="m -245.27558,1901.203 v -399.84 h 50.4 v 355.04 h 174.719999 v 44.8 z"
     style="font-family:'Droid Sans';-inkscape-font-specification:'Droid Sans'"
     id="path406" /><path
     d="m 155.12448,1596.003 q 54.88,0 81.2,24.08 26.32,24.08 26.32,76.72 v 204.4 h -35.84 l -9.52,-42.56 h -2.24 q -19.6,24.64 -41.44,36.4 -21.28,11.76 -59.36,11.76 -40.879998,0 -67.759998,-21.28 -26.88,-21.84 -26.88,-67.76 0,-44.8 35.28,-68.88 35.28,-24.64 108.639998,-26.88 l 50.96,-1.68 v -17.92 q 0,-37.52 -16.24,-52.08 -16.24,-14.56 -45.92,-14.56 -23.52,0 -44.8,7.28 -21.279998,6.72 -39.759998,15.68 l -15.12,-36.96 q 19.6,-10.64 46.48,-17.92 26.879998,-7.84 55.999998,-7.84 z m 14.56,160.16 q -56,2.24 -77.839998,17.92 -21.28,15.68 -21.28,44.24 0,25.2 15.12,36.96 15.679998,11.76 39.759998,11.76 38.08,0 63.28,-20.72 25.2,-21.28 25.2,-64.96 v -26.88 z"
     style="font-family:'Droid Sans';-inkscape-font-specification:'Droid Sans'"
     id="path408" /><path
     d="m 500.08488,1595.443 q 53.76,0 81.2,26.32 27.44,25.76 27.44,84 v 195.44 h -48.72 v -192.08 q 0,-72.24 -67.2,-72.24 -49.84,0 -68.88,28 -19.04,28 -19.04,80.64 v 155.68 h -49.28 v -300.16 h 39.76 l 7.28,40.88 h 2.8 q 14.56,-23.52 40.32,-34.72 25.76,-11.76 54.32,-11.76 z"
     style="font-family:'Droid Sans';-inkscape-font-specification:'Droid Sans'"
     id="path410" /><path
     d="m 808.08496,1906.803 q -56,0 -89.6,-38.64 -33.6,-39.2 -33.6,-116.48 0,-77.28 33.6,-116.48 34.16,-39.76 90.16,-39.76 34.72,0 56.56,12.88 22.4,12.88 36.4,31.36 h 3.36 q -0.56,-7.28 -2.24,-21.28 -1.12,-14.56 -1.12,-22.96 v -119.84 h 49.28 v 425.6 h -39.76 l -7.28,-40.32 h -2.24 q -13.44,19.04 -35.84,32.48 -22.4,13.44 -57.68,13.44 z m 7.84,-40.88 q 47.6,0 66.64,-25.76 19.6,-26.32 19.6,-78.96 v -8.96 q 0,-56 -18.48,-85.68 -18.48,-30.24 -68.32,-30.24 -39.76,0 -59.92,31.92 -19.6,31.36 -19.6,84.56 0,53.76 19.6,83.44 20.16,29.68 60.48,29.68 z"
     style="font-family:'Droid Sans';-inkscape-font-specification:'Droid Sans'"
     id="path412" /></g><path
   style="clip-rule:evenodd;fill:#389826;fill-opacity:1;fill-rule:nonzero;stroke:#389826;stroke-width:0.223327;stroke-linecap:round;stroke-linejoin:round;stroke-dasharray:none;stroke-opacity:1"
   d="m 492.73757,1408.7573 c -6.67145,-1.5484 -9.83275,-4.2309 -9.83275,-8.3434 0,-5.0593 6.26515,-19.8557 14.10462,-33.3109 2.06765,-3.5488 4.21454,-7.2481 4.77088,-8.2205 0.95245,-1.6649 0.87211,-2.1286 -1.3754,-7.9391 -3.21696,-8.3168 -5.00387,-16.3457 -5.47483,-24.5995 -1.3458,-23.5853 10.61674,-43.7053 33.20536,-55.8487 8.52499,-4.583 13.44092,-6.3221 32.44805,-11.4787 9.01334,-2.4454 20.37017,-5.8314 25.23737,-7.5244 10.26952,-3.5723 23.51828,-10.1746 31.41885,-15.6568 3.03927,-2.109 5.76289,-3.8345 6.05248,-3.8345 1.99689,0 6.22317,14.229 8.19178,27.5799 1.60231,10.8668 1.59299,34.3914 -0.0177,44.807 -4.96065,32.0775 -17.46825,55.5728 -38.39714,72.1283 -11.27846,8.9216 -21.41214,12.6622 -31.43712,11.6042 -9.05427,-0.9556 -22.47293,-5.217 -31.67905,-10.0605 l -3.75442,-1.9752 1.65931,-4.9724 c 2.73471,-8.195 9.17659,-21.0534 13.72531,-27.3966 2.34947,-3.2763 7.43821,-8.965 11.30831,-12.6416 10.70674,-10.1713 16.70587,-17.3803 24.20969,-29.0919 3.82899,-5.976 10.23084,-17.8544 9.842,-18.2614 -0.14613,-0.153 -2.89163,3.0451 -6.1011,7.1069 -8.26845,10.4643 -21.15676,24.1494 -28.45246,30.2117 -8.34127,6.9311 -12.43406,11.098 -17.34111,17.6551 -7.44883,9.9537 -14.24733,22.5676 -20.33929,37.7374 -1.51548,3.7737 -5.50289,12.805 -8.86091,20.0693 -6.84996,14.8186 -5.89944,13.93 -13.11067,12.2563 z"
   id="path1383-3" /><path
   style="clip-rule:evenodd;fill:#cb3c33;fill-opacity:1;fill-rule:nonzero;stroke:#cb3c33;stroke-width:0.223327;stroke-linecap:round;stroke-linejoin:round;stroke-dasharray:none;stroke-opacity:1"
   d="m 392.20578,1590.5287 c -6.67145,-1.5484 -9.83275,-4.2309 -9.83275,-8.3435 0,-5.0592 6.26515,-19.8556 14.10462,-33.3108 2.06765,-3.5489 4.21454,-7.2481 4.77088,-8.2205 0.95245,-1.6649 0.87211,-2.1287 -1.37539,-7.9391 -3.21697,-8.3168 -5.00388,-16.3457 -5.47484,-24.5995 -1.3458,-23.5853 10.61674,-43.7054 33.20536,-55.8489 8.525,-4.5829 13.44091,-6.322 32.44804,-11.4786 9.01335,-2.4454 20.37017,-5.8314 25.23739,-7.5244 10.26952,-3.5723 23.51828,-10.1746 31.41885,-15.6568 3.03927,-2.109 5.76289,-3.8345 6.05248,-3.8345 1.99689,0 6.22317,14.229 8.19178,27.5799 1.60231,10.8668 1.59298,34.3914 -0.0177,44.8071 -4.96065,32.0775 -17.46825,55.5728 -38.39714,72.1283 -11.27847,8.9216 -21.41215,12.6622 -31.43713,11.6042 -9.05427,-0.9556 -22.47293,-5.2171 -31.67905,-10.0605 l -3.75442,-1.9752 1.65931,-4.9724 c 2.73472,-8.1951 9.17659,-21.0534 13.72531,-27.3966 2.34947,-3.2763 7.43821,-8.9651 11.30831,-12.6416 10.70674,-10.1713 16.70587,-17.3803 24.20969,-29.0919 3.82898,-5.9761 10.23084,-17.8546 9.842,-18.2615 -0.14613,-0.153 -2.89162,3.0451 -6.1011,7.1069 -8.26846,10.4643 -21.15677,24.1495 -28.45246,30.2118 -8.34127,6.9311 -12.43405,11.098 -17.3411,17.6551 -7.44883,9.9537 -14.24734,22.5676 -20.3393,37.7374 -1.51547,3.7737 -5.50289,12.8049 -8.86091,20.0693 -6.84996,14.8186 -5.89944,13.93 -13.11067,12.2563 z"
   id="path1383-3-6-7" /><path
   style="clip-rule:evenodd;fill:#9558b2;fill-opacity:1;fill-rule:nonzero;stroke:#9558b2;stroke-width:0.223327;stroke-linecap:round;stroke-linejoin:round;stroke-dasharray:none;stroke-opacity:1"
   d="m 571.47982,1590.5286 c -6.67144,-1.5484 -9.83279,-4.2309 -9.83279,-8.3435 0,-5.0592 6.26521,-19.8556 14.10465,-33.3108 2.06762,-3.5488 4.21453,-7.2481 4.77089,-8.2205 0.95246,-1.6649 0.87212,-2.1286 -1.3754,-7.9391 -3.21699,-8.3168 -5.00387,-16.3457 -5.47483,-24.5995 -1.34581,-23.5853 10.61671,-43.7053 33.20535,-55.8488 8.52496,-4.5829 13.44092,-6.322 32.44801,-11.4786 9.01339,-2.4454 20.37019,-5.8314 25.23739,-7.5244 10.26954,-3.5723 23.51832,-10.1746 31.41888,-15.6568 3.03924,-2.109 5.76284,-3.8345 6.05244,-3.8345 1.9969,0 6.22317,14.229 8.19178,27.5799 1.60231,10.8668 1.59299,34.3914 -0.0177,44.807 -4.96063,32.0775 -17.4682,55.5728 -38.39715,72.1283 -11.27845,8.9216 -21.41214,12.6622 -31.43711,11.6042 -9.05423,-0.9556 -22.47289,-5.217 -31.67906,-10.0605 l -3.75442,-1.9752 1.65936,-4.9724 c 2.73467,-8.195 9.17657,-21.0534 13.72527,-27.3966 2.34947,-3.2763 7.43822,-8.965 11.30833,-12.6416 10.70671,-10.1713 16.70585,-17.3803 24.20967,-29.0919 3.82899,-5.976 10.23086,-17.8545 9.84199,-18.2615 -0.14611,-0.1529 -2.89162,3.0452 -6.10109,7.107 -8.26845,10.4643 -21.15673,24.1494 -28.45246,30.2117 -8.34127,6.9311 -12.43404,11.098 -17.34109,17.6551 -7.44882,9.9537 -14.24731,22.5676 -20.33932,37.7374 -1.51545,3.7737 -5.50284,12.8049 -8.86087,20.0693 -6.84999,14.8186 -5.89946,13.93 -13.11065,12.2563 z"
   id="path1383-3-6" /><path
   d="m -1148.2341,1488.5021 c -7.5306,-19.626 -24.3267,-50.591 -61.6966,-94.6709 -0.024,-0.035 -0.05,-0.07 -0.086,-0.1044 -0.037,0.035 -0.05,0.07 -0.073,0.1044 -38.5264,45.4494 -55.1995,76.9715 -62.3732,96.4698 0,0.011 -0.012,0.023 -0.012,0.035 q -0.012,0.011 -0.012,0.023 c -0.012,0.012 -0.012,0.023 -0.012,0.023 -3.0147,8.2288 -4.3436,14.3102 -4.922,18.3957 0,0.07 -0.012,0.1392 -0.024,0.2088 -0.1968,2.0543 -0.3075,4.1318 -0.3075,6.2324 0,27.8314 18.851,51.5659 45.1219,60.3982 7.0507,2.3792 14.6305,3.6791 22.5425,3.7023 h 0.1599 c 7.8751,0 15.4426,-1.2767 22.481,-3.6211 26.3939,-8.7743 45.3681,-32.5666 45.3681,-60.4794 0,-9.3777 -2.1288,-18.442 -6.1525,-26.7171 z"
   stroke-width="0"
   id="path298"
   style="fill:#4063d8;fill-opacity:1" /></g>
</svg>
