<?xml version="1.0" encoding="UTF-8" standalone="no"?>
<svg
   version="1.1"
   viewBox="-5 -10 74.831474 22.284491"
   id="svg2"
   sodipodi:docname="tools.svg"
   inkscape:version="1.3.2 (091e20ef0f, 2023-11-25)"
   width="74.831474"
   height="22.284491"
   xmlns:inkscape="http://www.inkscape.org/namespaces/inkscape"
   xmlns:sodipodi="http://sodipodi.sourceforge.net/DTD/sodipodi-0.dtd"
   xmlns="http://www.w3.org/2000/svg"
   xmlns:svg="http://www.w3.org/2000/svg">
  <defs
     id="defs2" />
  <sodipodi:namedview
     id="namedview2"
     pagecolor="#ffffff"
     bordercolor="#000000"
     borderopacity="0.25"
     inkscape:showpageshadow="2"
     inkscape:pageopacity="0.0"
     inkscape:pagecheckerboard="0"
     inkscape:deskcolor="#d1d1d1"
     inkscape:zoom="11.952724"
     inkscape:cx="44.592347"
     inkscape:cy="26.395658"
     inkscape:window-width="2256"
     inkscape:window-height="1408"
     inkscape:window-x="0"
     inkscape:window-y="0"
     inkscape:window-maximized="1"
     inkscape:current-layer="svg2" />
  <path
     style="fill:#4063d8;fill-opacity:1;stroke-width:0.118317"
     d="m -0.71567599,7.8138048 c -0.08761,-4.761294 0.09096,-4.084307 -1.35430701,-5.134396 -1.700894,-1.23582 -2.750491,-3.48591096 -2.746585,-5.888036 0.0034,-2.086695 0.670941,-3.798661 2.034119,-5.216613 l 0.796227,-0.828221 0.0038,3.437117 c 0.0027,2.511202 0.04201,3.475364 0.14574,3.579097 0.10454,0.104541 1.14491701,0.141981 3.945291,0.141981 3.534322,0 3.817158,-0.0153 3.999123,-0.216372 0.172276,-0.190363 0.195814,-0.609916 0.195814,-3.490359 0,-1.903875 0.04536,-3.273988 0.10839,-3.273988 0.260507,0 1.456057,1.524024 1.890604,2.410041 1.086291,2.214893 1.094957,4.620182 0.02479,6.88121904 C 7.803685,1.3216288 6.807303,2.4688918 5.830274,3.0904578 c -0.35791,0.227694 -0.689862,0.471812 -0.737671,0.542486 -0.04781,0.07067 -0.08774,1.978681 -0.08874,4.24002 l -0.0018,4.1115252 H 2.181542 -0.63893199 Z"
     id="path2" />
  <path
     style="fill:#4063d8;fill-opacity:1;stroke:#000000;stroke-width:0.6;stroke-linecap:butt;stroke-dasharray:none;stroke-opacity:1"
     d="m -0.56720799,11.540799 c -0.09363,-4.9977502 -0.204659,-7.6985302 -0.325653,-7.9213882 C -0.97060099,3.4762218 -1.419759,3.0680898 -1.890987,2.7124528 -3.748329,1.3107128 -4.7,-0.69891116 -4.7,-3.2192802 c 0,-2.022944 0.610001,-3.663084 1.873165,-5.036471 l 0.696569,-0.75735 0.08777,3.37018 c 0.04827,1.853598 0.112138,3.410111 0.141923,3.458917 0.02979,0.04881 1.80422101,0.08874 3.943191,0.08874 3.37773,0 3.91348,-0.02445 4.074963,-0.185927 0.142277,-0.142277 0.185927,-0.443374 0.185927,-1.282523 0,-0.603128 0.03542,-2.074545 0.07872,-3.269817 l 0.07872,-2.173221 0.547207,0.610953 c 0.721384,0.80542 1.373073,1.919245 1.678824,2.869334 0.345998,1.075153 0.429274,3.003517 0.173788,4.024266 -0.45387,1.81335504 -1.580922,3.472697 -3.090254,4.549734 L 5.00202,3.5959208 v 4.194285 4.1942852 H 2.221564 -0.55889199 Z"
     id="path3" />
  <path
     style="fill:#389826;fill-opacity:1;stroke:#000000;stroke-width:0.6;stroke-dasharray:none;stroke-opacity:1"
     d="m 19.316593,7.8138048 c -9.96e-4,-2.293876 -0.04093,-4.225674 -0.08874,-4.292884 -0.04781,-0.06721 -0.364168,-0.297576 -0.703018,-0.511927 -1.422955,-0.900131 -2.632505,-2.64645696 -3.044886,-4.396151 -0.232107,-0.984811 -0.234911,-2.825096 -0.0057,-3.72992 0.306002,-1.207867 1.030191,-2.523689 1.854493,-3.369538 l 0.747311,-0.766846 0.05916,3.465227 c 0.04962,2.906757 0.08776,3.483287 0.236635,3.577286 0.10176,0.06425 1.75488,0.112831 3.87489,0.11387 3.540943,0.0017 3.707429,-0.0082 3.934049,-0.234823 0.225267,-0.225266 0.236824,-0.397203 0.24057,-3.579097 l 0.0039,-3.342463 0.754234,0.788224 c 0.943283,0.985792 1.634948,2.346135 1.912543,3.761524 0.574939,2.931479 -0.683799,6.136662 -3.001558,7.643005 -0.373332,0.242635 -0.745339,0.523742 -0.826682,0.624685 -0.11197,0.138948 -0.147897,1.183991 -0.147897,4.302021 v 4.1184912 h -2.898719 -2.898773 z"
     id="path4" />
  <path
     style="fill:#9558b2;fill-opacity:1;stroke:#000000;stroke-width:0.6;stroke-dasharray:none;stroke-opacity:1"
     d="m 39.628432,10.653419 c -0.04218,-0.7320882 -0.07694,-2.4865202 -0.07724,-3.8987372 l -5.38e-4,-2.567668 -0.798641,-0.523111 c -1.354981,-0.887513 -2.201679,-1.981004 -2.810319,-3.62945796 -0.262143,-0.709994 -0.339258,-1.15424604 -0.385771,-2.22239004 -0.07091,-1.628399 0.135893,-2.624966 0.818967,-3.946529 0.43753,-0.846504 1.642994,-2.349924 1.884202,-2.349924 0.0631,0 0.10839,1.407708 0.10839,3.369314 v 3.369315 l 0.282499,0.1851 c 0.243995,0.159872 0.783446,0.180402 3.957871,0.150624 2.818277,-0.02644 3.711205,-0.0703 3.829026,-0.188093 0.115915,-0.115887 0.168184,-0.986214 0.212812,-3.543549 l 0.05916,-3.389933 0.624273,0.634414 c 1.63934,1.665971 2.426773,4.179832 2.040289,6.513567 -0.330353,1.99478204 -1.37219,3.804314 -2.752375,4.780511 -1.417851,1.002839 -1.272836,0.456284 -1.272836,4.797237 v 3.7903802 h -2.821536 -2.821537 z"
     id="path5" />
  <path
     style="fill:#cb3c33;fill-opacity:1;stroke:#000000;stroke-width:0.6;stroke-dasharray:none;stroke-opacity:1"
     d="m 59.664593,8.0870998 v -3.897388 l -0.900055,-0.622208 c -1.066706,-0.737413 -1.829446,-1.627761 -2.367852,-2.76399696 -0.562869,-1.18786 -0.754881,-2.06002804 -0.754881,-3.42885804 0,-2.124415 0.634465,-3.746444 2.037214,-5.208203 l 0.794882,-0.82832 0.0038,3.437116 c 0.0027,2.511202 0.04201,3.475365 0.145741,3.579098 0.104558,0.104558 1.147501,0.14198 3.956919,0.14198 3.808123,0 3.815268,-4.7e-4 3.999123,-0.262961 0.155774,-0.222397 0.184185,-0.760804 0.184185,-3.490359 0,-1.775069 0.04646,-3.227398 0.103249,-3.227398 0.1716,0 1.055533,1.019132 1.557376,1.795582 0.746698,1.155285 1.09143,2.383868 1.106328,3.942805 0.01467,1.535426 -0.139237,2.25147204 -0.767911,3.57261804 C 68.227282,1.9517978 67.267273,3.0605778 66.2904,3.6820438 c -0.357909,0.227695 -0.689861,0.471813 -0.737671,0.542486 -0.04781,0.07067 -0.08774,1.845574 -0.08874,3.944227 l -0.0018,3.8157322 h -2.898773 -2.898773 z"
     id="path6" />
</svg>
