<svg xmlns="http://www.w3.org/2000/svg" viewBox="0 0 36 36"><path fill="#67757f" d="M35 20c0 2.209-1.791 2-4 2H5c-2.209 0-4 .209-4-2L3 8c.125-1.917 1.791-4 4-4h22c2.209 0 3.791 2.208 4 4z" style="fill:#656ea9;fill-opacity:1"/><path fill="#ccd6dd" d="M28 13a2 2 0 0 1-2 2H10a2 2 0 0 1-2-2V5a2 2 0 0 1 2-2h16a2 2 0 0 1 2 2z" style="fill:#f2cbca;fill-opacity:1"/><path fill="#e1e8ed" d="M30 17a2 2 0 0 1-2 2H8a2 2 0 0 1-2-2V9a2 2 0 0 1 2-2h20a2 2 0 0 1 2 2z" style="fill:#c6f4c2;fill-opacity:1"/><path fill="#f5f8fa" d="M32 21a2 2 0 0 1-2 2H6a2 2 0 0 1-2-2v-8a2 2 0 0 1 2-2h24a2 2 0 0 1 2 2z" style="fill:#f4e6ff;fill-opacity:1"/><path fill="#9aaab4" d="M35 31a4 4 0 0 1-4 4H5a4 4 0 0 1-4-4V20a4 4 0 0 1 4-4h26a4 4 0 0 1 4 4z" style="fill:#97a4ec;fill-opacity:1"/><path fill="#fcab40" d="M22 1h-5a2 2 0 0 0-2 2v1h4a2 2 0 0 1 2 2h1a2 2 0 0 0 2-2V3a2 2 0 0 0-2-2" style="fill:#cb3c33"/><path fill="#5dadec" d="M18 5h-5a2 2 0 0 0-2 2v1h4a2 2 0 0 1 2 2h1a2 2 0 0 0 2-2V7a2 2 0 0 0-2-2" style="fill:#389826"/><path fill="#e75a70" d="M16 12a2 2 0 0 1-2 2H9a2 2 0 0 1-2-2v-1a2 2 0 0 1 2-2h5a2 2 0 0 1 2 2z" style="fill:#9558b2"/><path fill="#67757f" d="M25 28a2 2 0 0 1-2 2H13a2 2 0 0 1-2-2v-5a2 2 0 0 1 2-2h10a2 2 0 0 1 2 2z" style="fill:#4063d8;fill-opacity:1"/><path fill="#e1e8ed" d="M23 27a1 1 0 0 1-1 1h-8a1 1 0 0 1-1-1v-3a1 1 0 0 1 1-1h8a1 1 0 0 1 1 1z" style="fill:#e8eafb;fill-opacity:1"/></svg>