<?xml version="1.0" encoding="UTF-8" standalone="no"?>
<!-- Created with Inkscape (http://www.inkscape.org/) -->

<svg
   version="1.1"
   id="svg2"
   width="1567.9242"
   height="279.37802"
   viewBox="0 0 1567.9242 279.37802"
   sodipodi:docname="logo-dark.svg"
   inkscape:version="1.2.2 (b0a8486541, 2022-12-01)"
   xmlns:inkscape="http://www.inkscape.org/namespaces/inkscape"
   xmlns:sodipodi="http://sodipodi.sourceforge.net/DTD/sodipodi-0.dtd"
   xmlns="http://www.w3.org/2000/svg"
   xmlns:svg="http://www.w3.org/2000/svg">
  <defs
     id="defs6" />
  <sodipodi:namedview
     id="namedview4"
     pagecolor="#ffffff"
     bordercolor="#666666"
     borderopacity="1.0"
     inkscape:showpageshadow="2"
     inkscape:pageopacity="0.0"
     inkscape:pagecheckerboard="0"
     inkscape:deskcolor="#d1d1d1"
     showgrid="false"
     inkscape:zoom="4.0117187"
     inkscape:cx="228.8296"
     inkscape:cy="123.38851"
     inkscape:window-width="2560"
     inkscape:window-height="1373"
     inkscape:window-x="0"
     inkscape:window-y="0"
     inkscape:window-maximized="1"
     inkscape:current-layer="g8" />
  <g
     inkscape:groupmode="layer"
     inkscape:label="Image"
     id="g8"
     transform="translate(-105.58993,-344.99612)">
    <path
       style="fill:#ffffff;stroke-width:0.496807;fill-opacity:1"
       d="m 114.97489,605.13127 c -6.86457,-2.77797 -10.72714,-10.47934 -8.95688,-17.85862 0.37091,-1.54612 2.69731,-6.09414 5.93854,-11.6096 19.65428,-33.44487 17.92542,-30.21902 17.65324,-32.9388 -0.13538,-1.35283 -0.91541,-10.95509 -1.73339,-21.33836 -0.81799,-10.38327 -1.70441,-21.44965 -1.96982,-24.59195 -0.92263,-10.92316 -0.92783,-10.88494 4.45833,-32.76915 2.72639,-11.07744 5.52715,-22.22922 6.2239,-24.78173 2.01187,-7.37035 5.0272,-11.30273 10.67854,-13.9262 3.86808,-1.79565 7.87365,-1.85312 39.63859,-0.56881 l 26.94175,1.0893 5.83339,-3.2077 c 3.20836,-1.76423 8.92964,-4.91235 12.71396,-6.99581 3.78432,-2.08347 7.87216,-4.12477 9.08409,-4.53623 6.19724,-2.10402 13.49846,0.74611 16.94929,6.61637 1.20239,2.04539 1.36502,2.82831 1.35977,6.54612 -0.005,3.36222 -0.22403,4.63242 -1.07594,6.23242 -1.46704,2.75527 -4.92545,5.82291 -8.68835,7.70663 -1.7307,0.86639 -8.73581,4.62376 -15.56691,8.34971 l -12.42018,6.77446 -8.69412,-0.0917 c -4.78177,-0.0505 -16.40706,-0.44037 -25.83397,-0.86648 -24.00285,-1.08495 -28.88533,-1.21868 -30.30523,-0.83009 -1.65198,0.45211 -2.64916,2.53134 -2.01454,4.20052 0.975,2.56443 1.84429,2.74504 14.9795,3.11216 l 12.1961,0.34088 -2.65689,9.48756 c -1.46129,5.21815 -3.44122,12.39387 -4.39985,15.94604 l -1.74297,6.4585 3.12169,2.92362 c 1.71692,1.608 9.9119,9.08191 18.21105,16.60871 20.88048,18.93725 21.2146,19.30323 22.38162,24.51664 1.08679,4.85497 8.48366,54.72726 8.48366,57.19981 0,3.21243 -2.19944,8.04816 -4.56643,10.03985 -4.1459,3.48855 -10.22125,4.66584 -15.32681,2.97004 -4.48755,-1.49052 -8.59978,-6.2137 -9.65414,-11.08843 -0.197,-0.91083 -1.87108,-12.1498 -3.72017,-24.97549 -2.73577,-18.97599 -3.53641,-23.51665 -4.29849,-24.3782 -0.51508,-0.5823 -6.84673,-6.33413 -14.07033,-12.78183 -16.63687,-14.84987 -16.923,-15.09822 -16.923,-14.68784 0,0.18806 0.67886,7.72263 1.50858,16.74349 1.69704,18.45073 1.76108,17.61099 -1.78919,23.46301 -1.16664,1.92303 -3.64874,6.1114 -5.51575,9.30747 -1.86701,3.19607 -4.15901,7.10843 -5.09332,8.69412 -0.93432,1.5857 -2.25113,4.0009 -2.92625,5.36712 -0.67512,1.36622 -1.83256,3.37828 -2.57209,4.47126 -0.73952,1.09298 -3.30096,5.30353 -5.69208,9.35677 -3.69218,6.25871 -4.69331,7.58886 -6.64176,8.82454 -1.26186,0.80024 -3.08447,1.67451 -4.05026,1.94282 -2.69313,0.74818 -6.97658,0.5367 -9.45648,-0.46687 z m 183.57022,0.1288 c -0.81973,-0.10216 -3.05537,-0.55171 -4.96807,-0.99898 -21.10578,-4.93542 -37.03309,-23.3418 -42.83105,-49.49764 l -1.3418,-6.05317 -0.16331,-50.68487 -0.16331,-50.68486 2.30948,-0.68191 c 1.27022,-0.37505 3.45557,-1.45317 4.85634,-2.39581 2.30624,-1.55199 2.59428,-1.63349 3.04881,-0.8627 6.56916,11.14003 15.79947,21.18107 23.9645,26.06942 l 4.56401,2.73244 0.0256,26.57918 c 0.026,26.98818 0.2612,31.66128 2.03169,40.36509 4.49622,22.10369 18.05372,39.64364 37.95826,49.10833 8.56456,4.07249 16.48435,6.0082 31.31932,7.65492 11.2467,1.24841 17.5425,2.90678 24.59195,6.47775 6.79998,3.4446 10.10277,3.18228 -39.24776,3.1172 -24.45533,-0.0322 -45.13493,-0.14223 -45.95466,-0.24439 z M 312.2073,471.67701 c -7.06106,-1.13226 -15.02114,-3.8039 -20.8659,-7.00323 -10.15561,-5.55902 -19.12906,-14.48198 -24.41018,-24.27283 -2.00977,-3.72599 -2.01661,-3.75692 -1.20734,-5.46232 3.42305,-7.21355 3.41684,-14.80423 -0.0173,-21.11385 -2.87255,-5.27782 -9.86704,-10.37927 -15.36021,-11.20302 -1.43946,-0.21586 -2.2272,-0.58424 -2.2272,-1.04152 0,-1.32122 3.46195,-9.6791 5.7999,-14.00223 12.16632,-22.49683 30.35206,-36.43352 54.31377,-41.62351 5.33886,-1.15638 20.26573,-1.30005 25.58556,-0.24626 14.75849,2.92345 28.84777,11.37086 37.86542,22.7027 15.54015,19.52819 18.63136,44.77572 8.12111,66.32917 -5.54156,11.36412 -11.81152,19.16942 -20.59956,25.64383 -12.87746,9.48719 -31.04137,13.85176 -46.99808,11.29307 z m 21.36271,-30.7556 c 5.37983,-1.45158 9.85718,-4.11641 14.13903,-8.41528 4.57553,-4.59372 7.17742,-8.74967 9.05044,-14.45612 1.09397,-3.33295 1.30782,-4.89663 1.32486,-9.68774 0.0363,-10.20476 -2.51234,-16.3268 -9.82792,-23.60741 -7.02352,-6.98995 -13.58104,-9.67867 -23.60533,-9.67867 -10.1891,0 -17.48099,3.25093 -24.76948,11.04291 -4.53717,4.8506 -6.62817,9.15818 -7.88688,16.24741 -3.20762,18.06572 8.57159,35.71387 26.04827,39.02668 4.48211,0.84961 11.40982,0.63912 15.52701,-0.47178 z m -12.95209,-15.81943 c -5.1529,-1.45922 -9.01728,-4.78857 -11.33047,-9.76174 -1.05644,-2.27127 -1.28338,-3.49671 -1.29225,-6.97797 -0.009,-3.67294 0.1781,-4.60751 1.43953,-7.17664 1.77518,-3.6155 4.98567,-6.9151 8.12127,-8.3467 3.47074,-1.58461 11.34251,-1.58561 14.5563,-0.002 3.06929,1.51255 6.66662,5.21748 8.30493,8.55333 1.15163,2.3449 1.34852,3.36976 1.33934,6.97186 -0.0125,4.91307 -1.31664,8.37807 -4.46478,11.86268 -3.77795,4.18175 -11.32938,6.39051 -16.67387,4.87703 z M 159.68753,413.77035 c -4.53031,-0.72527 -10.35151,-3.91752 -13.72218,-7.52503 -5.52956,-5.91808 -7.96353,-12.50188 -7.48486,-20.24634 0.42972,-6.95284 3.10217,-12.82652 8.02125,-17.62968 6.09548,-5.95184 15.37998,-8.50248 24.21528,-6.65244 7.97359,1.66961 15.77958,8.73911 18.88681,17.10483 0.90472,2.43583 1.10296,4.02068 1.11703,8.93009 l 0.0171,5.96868 -2.36649,4.89492 c -5.69928,11.78856 -15.93421,17.19613 -28.68393,15.15497 z"
       id="path293" />
    <g
       id="g1908"
       transform="matrix(0.58421514,0,0,0.58421514,1051.7717,223.61773)">
      <ellipse
         style="fill:none;stroke:#cb3c33;stroke-width:30.625;stroke-linecap:square;stroke-linejoin:bevel;stroke-dasharray:none;stroke-opacity:1;paint-order:markers fill stroke"
         id="path1023"
         cx="653.81641"
         cy="399.94873"
         rx="50.510078"
         ry="49.841553" />
      <ellipse
         style="fill:#cb3c33;fill-opacity:1;stroke:none;stroke-width:53.423;stroke-linecap:square;stroke-linejoin:bevel;stroke-dasharray:none;stroke-opacity:1;paint-order:markers fill stroke"
         id="path1545"
         cx="655.1441"
         cy="400.29327"
         rx="17.882956"
         ry="17.065907" />
    </g>
    <g
       id="g1914"
       transform="matrix(0.58421514,0,0,0.58421514,1131.5617,225.72924)">
      <ellipse
         style="fill:none;stroke:#9558b2;stroke-width:30.625;stroke-linecap:square;stroke-linejoin:bevel;stroke-dasharray:none;stroke-opacity:1;paint-order:markers fill stroke"
         id="ellipse1910"
         cx="653.81641"
         cy="399.94873"
         rx="50.510078"
         ry="49.841553" />
      <ellipse
         style="fill:#9558b2;fill-opacity:1;stroke:none;stroke-width:53.423;stroke-linecap:square;stroke-linejoin:bevel;stroke-dasharray:none;stroke-opacity:1;paint-order:markers fill stroke"
         id="ellipse1912"
         cx="655.1441"
         cy="400.29327"
         rx="17.882956"
         ry="17.065907" />
    </g>
    <g
       id="g1920"
       transform="matrix(0.58421514,0,0,0.58421514,1093.2148,157.54801)">
      <ellipse
         style="fill:none;stroke:#389826;stroke-width:30.625;stroke-linecap:square;stroke-linejoin:bevel;stroke-dasharray:none;stroke-opacity:1;paint-order:markers fill stroke"
         id="ellipse1916"
         cx="653.81641"
         cy="399.94873"
         rx="50.510078"
         ry="49.841553" />
      <ellipse
         style="fill:#389826;fill-opacity:1;stroke:none;stroke-width:53.423;stroke-linecap:square;stroke-linejoin:bevel;stroke-dasharray:none;stroke-opacity:1;paint-order:markers fill stroke"
         id="ellipse1918"
         cx="655.1441"
         cy="400.29327"
         rx="17.882956"
         ry="17.065907" />
    </g>
    <g
       id="g3384">
      <path
         style="fill:#4063d8;fill-opacity:1;stroke:none;stroke-width:6.62335;stroke-linecap:square;stroke-linejoin:bevel;stroke-dasharray:none;stroke-opacity:1;paint-order:markers fill stroke"
         d="m 314.57838,471.88069 c -12.00636,-1.56018 -23.35647,-6.3154 -32.28042,-13.52416 -3.10576,-2.50883 -7.93107,-7.43228 -10.29651,-10.50594 -3.00779,-3.90832 -6.5292,-9.97186 -6.5292,-11.24267 0,-0.35893 0.38691,-1.60214 0.85981,-2.76269 2.61122,-6.4083 2.73636,-12.4896 0.37484,-18.21633 -0.98592,-2.39089 -2.28946,-4.275 -4.47074,-6.46191 -3.31498,-3.32353 -7.59033,-5.78011 -11.48554,-6.59949 -2.23624,-0.47041 -2.55221,-0.70284 -2.33707,-1.71919 0.51471,-2.43159 4.68333,-11.67748 7.22165,-16.01743 11.74514,-20.0815 28.63707,-32.88256 50.40162,-38.19538 4.78395,-1.16779 7.32395,-1.38537 16.14429,-1.38299 8.59645,0.002 10.04704,0.13454 14.85874,1.35428 25.54183,6.47469 44.43185,27.414 48.23798,53.47111 0.53663,3.67386 0.6045,11.86723 0.12698,15.33008 -1.39102,10.08731 -4.90302,19.19711 -11.05821,28.68396 -9.79703,15.09994 -24.8765,24.57383 -43.81495,27.52737 -3.59998,0.56144 -12.51957,0.70758 -15.95327,0.26138 z m 16.95034,-30.40999 c 5.87577,-1.03126 11.33466,-3.99242 16.09679,-8.73166 5.12103,-5.09641 7.92141,-9.83117 9.88192,-16.70788 0.51811,-1.81734 0.56744,-2.49147 0.55631,-7.60273 -0.0105,-4.83678 -0.0887,-5.96168 -0.56783,-8.17466 -1.27199,-5.87452 -3.44626,-9.64692 -8.62928,-14.97195 -7.3357,-7.5367 -13.73232,-10.25831 -24.10018,-10.25406 -7.21921,0.003 -12.44834,1.38648 -17.4682,4.62173 -4.969,3.20248 -10.16515,8.67945 -12.40453,13.07495 -1.04977,2.0605 -2.13965,5.33031 -2.79071,8.37261 -0.7654,3.57654 -0.83292,10.49704 -0.13475,13.8124 1.4287,6.78442 4.51864,12.67686 9.14956,17.44801 4.96802,5.11845 11.90162,8.58662 18.90591,9.45669 2.51616,0.31256 8.84351,0.12367 11.50499,-0.34345 z"
         id="path1995" />
      <path
         style="fill:#4063d8;fill-opacity:1;stroke:none;stroke-width:6.62335;stroke-linecap:square;stroke-linejoin:bevel;stroke-dasharray:none;stroke-opacity:1;paint-order:markers fill stroke"
         d="m 320.81013,425.00347 c -6.1658,-1.68691 -11.44918,-7.28023 -12.48266,-13.21495 -0.47447,-2.72462 -0.19177,-7.13377 0.5795,-9.03815 2.09845,-5.1814 6.51093,-9.43253 10.83696,-10.44069 2.61518,-0.60945 8.00228,-0.60871 10.28303,10e-4 3.87935,1.03778 8.03419,4.80131 10.27311,9.30555 0.88482,1.78009 1.03429,2.33081 1.18395,4.36222 0.36574,4.9645 -0.4366,8.66482 -2.57687,11.88424 -2.12529,3.19689 -4.99807,5.32057 -8.99868,6.6522 -2.52932,0.8419 -6.94034,1.07857 -9.09834,0.48815 z"
         id="path3374" />
      <path
         style="fill:#4063d8;fill-opacity:1;stroke:none;stroke-width:6.62335;stroke-linecap:square;stroke-linejoin:bevel;stroke-dasharray:none;stroke-opacity:1;paint-order:markers fill stroke"
         d="m 320.30454,424.66163 c -5.4507,-1.74457 -9.94796,-6.31202 -11.56582,-11.74634 -0.47526,-1.59638 -0.56229,-6.34268 -0.15481,-8.44282 0.51324,-2.6452 2.90131,-6.47407 5.51063,-8.83537 3.15189,-2.85229 6.58758,-3.86413 12.17881,-3.58675 3.42681,0.17 4.88262,0.57128 6.97216,1.92182 2.99244,1.9341 5.29065,4.53838 6.98036,7.90998 1.95227,3.89549 1.4912,10.9764 -0.98831,15.17798 -0.46965,0.79585 -1.65172,2.25398 -2.62681,3.24031 -1.41516,1.43147 -2.24914,2.02501 -4.13305,2.94148 -1.29809,0.63148 -3.13631,1.31257 -4.08495,1.51354 -2.39734,0.50787 -6.35161,0.462 -8.08821,-0.0938 z"
         id="path3376" />
      <path
         style="fill:#4063d8;fill-opacity:1;stroke:none;stroke-width:6.62335;stroke-linecap:square;stroke-linejoin:bevel;stroke-dasharray:none;stroke-opacity:1;paint-order:markers fill stroke"
         d="m 300.37001,605.09795 c -4.04197,-0.1988 -8.19178,-1.12294 -12.83739,-2.85882 -13.14249,-4.91081 -24.35748,-16.01203 -31.02999,-30.71519 -2.69076,-5.9292 -4.19256,-10.55042 -5.98338,-18.41154 l -0.96925,-4.25468 -0.17946,-50.71981 -0.17947,-50.7198 1.55538,-0.43243 c 1.7372,-0.48299 3.8635,-1.50127 6.14936,-2.94492 0.83937,-0.53011 1.64356,-0.96384 1.78709,-0.96384 0.14353,0 0.57072,0.53282 0.9493,1.18403 3.2926,5.66373 9.8537,13.93674 14.45888,18.23146 3.74062,3.48845 6.435,5.51893 10.72702,8.08385 l 2.76941,1.65501 0.14512,25.3683 c 0.0798,13.95257 0.26729,27.16304 0.4166,29.35661 1.096,16.1021 5.75508,29.42964 14.27249,40.82722 2.95207,3.95031 9.32325,10.33791 13.17391,13.20786 6.64676,4.95393 14.06004,8.75449 21.41703,10.97985 5.70402,1.72536 10.41223,2.59751 21.68646,4.01721 10.6184,1.33711 15.49069,2.42416 20.83538,4.64856 3.1698,1.31924 7.83064,3.66424 7.83064,3.93983 0,0.11996 -0.25238,0.31071 -0.56086,0.42388 -0.69055,0.25334 -81.41409,0.34427 -86.43427,0.0974 z"
         id="path3378" />
    </g>
    <text
       xml:space="preserve"
       style="font-size:148.719px;line-height:1.25;font-family:'Latin Modern Roman';-inkscape-font-specification:'Latin Modern Roman, ';stroke-width:3.71798"
       x="327.75595"
       y="588.68158"
       id="text3388"><tspan
         sodipodi:role="line"
         id="tspan3386"
         x="327.75595"
         y="588.68158"
         style="font-style:normal;font-variant:normal;font-weight:bold;font-stretch:normal;font-family:'Symbols Nerd Font Mono';-inkscape-font-specification:'Symbols Nerd Font Mono Bold';fill:#ffffff;stroke-width:3.71798">UnrolledUtilities.jl</tspan></text>
  </g>
</svg>
