<?xml version="1.0" encoding="UTF-8" standalone="no"?>
<!-- Created with Inkscape (http://www.inkscape.org/) -->

<svg
   width="29.040083mm"
   height="31.718687mm"
   viewBox="0 0 29.040083 31.718687"
   version="1.1"
   id="svg1"
   inkscape:version="1.3.2 (091e20ef0f, 2023-11-25)"
   sodipodi:docname="logo_three.svg"
   xmlns:inkscape="http://www.inkscape.org/namespaces/inkscape"
   xmlns:sodipodi="http://sodipodi.sourceforge.net/DTD/sodipodi-0.dtd"
   xmlns="http://www.w3.org/2000/svg"
   xmlns:svg="http://www.w3.org/2000/svg">
  <sodipodi:namedview
     id="namedview1"
     pagecolor="#ffffff"
     bordercolor="#000000"
     borderopacity="0.25"
     inkscape:showpageshadow="2"
     inkscape:pageopacity="0.0"
     inkscape:pagecheckerboard="0"
     inkscape:deskcolor="#d1d1d1"
     inkscape:document-units="mm"
     inkscape:zoom="1.0128998"
     inkscape:cx="122.42079"
     inkscape:cy="36.035153"
     inkscape:window-width="2256"
     inkscape:window-height="1404"
     inkscape:window-x="0"
     inkscape:window-y="0"
     inkscape:window-maximized="1"
     inkscape:current-layer="layer1" />
  <defs
     id="defs1" />
  <g
     inkscape:label="Layer 1"
     inkscape:groupmode="layer"
     id="layer1"
     transform="translate(-72.495833,-138.90624)">
    <path
       style="clip-rule:evenodd;fill:#389826;fill-opacity:1;fill-rule:nonzero;stroke:#389826;stroke-width:0.0196962;stroke-linecap:round;stroke-linejoin:round;stroke-dasharray:none;stroke-opacity:1"
       d="m 82.23922,154.50503 c -0.588385,-0.13656 -0.867194,-0.37314 -0.867194,-0.73584 0,-0.4462 0.552551,-1.75116 1.243949,-2.93784 0.182355,-0.31298 0.371699,-0.63924 0.420765,-0.725 0.084,-0.14683 0.07691,-0.18773 -0.121303,-0.70018 -0.283718,-0.7335 -0.441313,-1.4416 -0.482849,-2.16954 -0.118692,-2.08009 0.936337,-3.85457 2.928528,-4.92555 0.751856,-0.40419 1.185414,-0.55757 2.861737,-1.01235 0.794927,-0.21568 1.796536,-0.5143 2.225796,-0.66362 0.905715,-0.31505 2.074182,-0.89734 2.770968,-1.38084 0.268047,-0.186 0.508255,-0.33818 0.533795,-0.33818 0.176115,0 0.548849,1.25492 0.722469,2.43239 0.141315,0.9584 0.140493,3.03313 -0.0016,3.95173 -0.437501,2.82906 -1.540602,4.90121 -3.386414,6.36132 -0.994697,0.78683 -1.888432,1.11673 -2.772579,1.02342 -0.798536,-0.0843 -1.981988,-0.46011 -2.793916,-0.88728 l -0.331119,-0.1742 0.146342,-0.43854 c 0.241186,-0.72275 0.809324,-1.85679 1.210496,-2.41622 0.20721,-0.28896 0.656009,-0.79067 0.99733,-1.11492 0.944275,-0.89705 1.473365,-1.53285 2.13516,-2.56575 0.337696,-0.52705 0.902303,-1.57466 0.86801,-1.61055 -0.01289,-0.0135 -0.255026,0.26856 -0.538083,0.62679 -0.729232,0.92289 -1.865909,2.12984 -2.509349,2.6645 -0.735654,0.61129 -1.096615,0.97878 -1.52939,1.55708 -0.656945,0.87787 -1.256535,1.99034 -1.793812,3.32823 -0.133657,0.33282 -0.485324,1.12933 -0.781483,1.77 -0.604128,1.30692 -0.520298,1.22855 -1.156288,1.08094 z"
       id="path1383-3" />
    <path
       style="clip-rule:evenodd;fill:#cb3c33;fill-opacity:1;fill-rule:nonzero;stroke:#cb3c33;stroke-width:0.0196962;stroke-linecap:round;stroke-linejoin:round;stroke-dasharray:none;stroke-opacity:1"
       d="m 73.372875,170.53626 c -0.588385,-0.13656 -0.867194,-0.37314 -0.867194,-0.73585 0,-0.4462 0.552551,-1.75116 1.243949,-2.93783 0.182355,-0.31299 0.371699,-0.63924 0.420765,-0.725 0.084,-0.14684 0.07691,-0.18774 -0.121302,-0.70019 -0.283719,-0.73349 -0.441314,-1.4416 -0.48285,-2.16954 -0.118692,-2.08009 0.936337,-3.85457 2.928528,-4.92556 0.751857,-0.40418 1.185413,-0.55756 2.861737,-1.01235 0.794927,-0.21567 1.796535,-0.51429 2.225797,-0.66361 0.905715,-0.31505 2.074182,-0.89734 2.770968,-1.38084 0.268047,-0.186 0.508255,-0.33818 0.533795,-0.33818 0.176115,0 0.548849,1.25492 0.722469,2.43239 0.141315,0.95839 0.140492,3.03313 -0.0016,3.95174 -0.437501,2.82906 -1.540602,4.90121 -3.386414,6.36131 -0.994698,0.78684 -1.888432,1.11674 -2.77258,1.02343 -0.798536,-0.0843 -1.981987,-0.46012 -2.793916,-0.88728 l -0.331119,-0.1742 0.146342,-0.43854 c 0.241187,-0.72276 0.809324,-1.85679 1.210496,-2.41623 0.20721,-0.28895 0.656009,-0.79067 0.99733,-1.11492 0.944275,-0.89705 1.473365,-1.53284 2.13516,-2.56574 0.337695,-0.52706 0.902303,-1.57468 0.86801,-1.61056 -0.01289,-0.0135 -0.255025,0.26856 -0.538083,0.62679 -0.729233,0.92289 -1.86591,2.12985 -2.509349,2.66451 -0.735654,0.61128 -1.096614,0.97878 -1.529389,1.55708 -0.656945,0.87786 -1.256536,1.99034 -1.793813,3.32823 -0.133656,0.33282 -0.485324,1.12932 -0.781483,1.77 -0.604128,1.30692 -0.520298,1.22855 -1.156288,1.08094 z"
       id="path1383-3-6-7" />
    <path
       style="clip-rule:evenodd;fill:#9558b2;fill-opacity:1;fill-rule:nonzero;stroke:#9558b2;stroke-width:0.0196962;stroke-linecap:round;stroke-linejoin:round;stroke-dasharray:none;stroke-opacity:1"
       d="m 89.183848,170.53625 c -0.588384,-0.13656 -0.867197,-0.37314 -0.867197,-0.73585 0,-0.44619 0.552556,-1.75115 1.243951,-2.93783 0.182353,-0.31298 0.371699,-0.63924 0.420766,-0.725 0.084,-0.14684 0.07692,-0.18773 -0.121302,-0.70019 -0.283721,-0.73349 -0.441314,-1.4416 -0.48285,-2.16953 -0.118693,-2.0801 0.936335,-3.85457 2.928527,-4.92556 0.751855,-0.40418 1.185415,-0.55756 2.861735,-1.01235 0.79493,-0.21567 1.796537,-0.51429 2.225797,-0.66361 0.905716,-0.31505 2.074185,-0.89734 2.770975,-1.38084 0.26804,-0.186 0.50825,-0.33818 0.53379,-0.33818 0.17611,0 0.54885,1.25492 0.72247,2.43239 0.14131,0.95839 0.14049,3.03313 -0.002,3.95173 -0.4375,2.82906 -1.540603,4.90121 -3.38642,6.36132 -0.994696,0.78683 -1.888431,1.11673 -2.772578,1.02342 -0.798533,-0.0843 -1.981984,-0.46011 -2.793917,-0.88728 l -0.331119,-0.1742 0.146346,-0.43854 c 0.241183,-0.72275 0.809323,-1.85679 1.210493,-2.41623 0.20721,-0.28895 0.65601,-0.79066 0.997332,-1.11491 0.944272,-0.89706 1.473363,-1.53285 2.135158,-2.56575 0.337696,-0.52705 0.902305,-1.57467 0.868009,-1.61056 -0.01289,-0.0135 -0.255025,0.26857 -0.538082,0.6268 -0.729232,0.92289 -1.865906,2.12984 -2.509349,2.6645 -0.735654,0.61128 -1.096613,0.97878 -1.529388,1.55708 -0.656944,0.87786 -1.256533,1.99034 -1.793815,3.32823 -0.133654,0.33282 -0.48532,1.12932 -0.781479,1.77 -0.604131,1.30692 -0.5203,1.22855 -1.156287,1.08094 z"
       id="path1383-3-6" />
  </g>
</svg>
